<?xml version="1.0" encoding="UTF-8" standalone="no"?><svg xmlns="http://www.w3.org/2000/svg" xmlns:xlink="http://www.w3.org/1999/xlink" contentStyleType="text/css" height="415px" preserveAspectRatio="none" style="width:635px;height:415px;background:#FFFFFF;" version="1.1" viewBox="0 0 635 415" width="635px" zoomAndPan="magnify"><defs/><g><!--MD5=[02e4b9b7573f1156f41e60aa5b4e25a4]
class Company--><g id="elem_Company"><rect codeLine="1" fill="#F1F1F1" height="162.0781" id="Company" rx="2.5" ry="2.5" style="stroke:#181818;stroke-width:0.5;" width="189" x="223.5" y="7"/><ellipse cx="281.25" cy="23" fill="#ADD1B2" rx="11" ry="11" style="stroke:#181818;stroke-width:1.0;"/><path d="M284.2188,28.6406 Q283.6406,28.9375 283,29.0781 Q282.3594,29.2344 281.6563,29.2344 Q279.1563,29.2344 277.8281,27.5938 Q276.5156,25.9375 276.5156,22.8125 Q276.5156,19.6875 277.8281,18.0313 Q279.1563,16.375 281.6563,16.375 Q282.3594,16.375 283,16.5313 Q283.6563,16.6875 284.2188,16.9844 L284.2188,19.7031 Q283.5938,19.125 283,18.8594 Q282.4063,18.5781 281.7813,18.5781 Q280.4375,18.5781 279.75,19.6563 Q279.0625,20.7188 279.0625,22.8125 Q279.0625,24.9063 279.75,25.9844 Q280.4375,27.0469 281.7813,27.0469 Q282.4063,27.0469 283,26.7813 Q283.5938,26.5 284.2188,25.9219 L284.2188,28.6406 Z " fill="#000000"/><text fill="#000000" font-family="sans-serif" font-size="14" lengthAdjust="spacing" textLength="65" x="301.75" y="27.8467">Company</text><line style="stroke:#181818;stroke-width:0.5;" x1="224.5" x2="411.5" y1="39" y2="39"/><ellipse cx="234.5" cy="52.6484" fill="none" rx="3" ry="3" style="stroke:#038048;stroke-width:1.0;"/><text fill="#000000" font-family="sans-serif" font-size="14" lengthAdjust="spacing" textLength="61" x="243.5" y="55.9951">id: String</text><ellipse cx="234.5" cy="68.9453" fill="none" rx="3" ry="3" style="stroke:#038048;stroke-width:1.0;"/><text fill="#000000" font-family="sans-serif" font-size="14" lengthAdjust="spacing" textLength="88" x="243.5" y="72.292">name: String</text><ellipse cx="234.5" cy="85.2422" fill="none" rx="3" ry="3" style="stroke:#038048;stroke-width:1.0;"/><text fill="#000000" font-family="sans-serif" font-size="14" lengthAdjust="spacing" textLength="85" x="243.5" y="88.5889">email: String</text><ellipse cx="234.5" cy="101.5391" fill="none" rx="3" ry="3" style="stroke:#038048;stroke-width:1.0;"/><text fill="#000000" font-family="sans-serif" font-size="14" lengthAdjust="spacing" textLength="116" x="243.5" y="104.8857">password: String</text><ellipse cx="234.5" cy="117.8359" fill="none" rx="3" ry="3" style="stroke:#038048;stroke-width:1.0;"/><text fill="#000000" font-family="sans-serif" font-size="14" lengthAdjust="spacing" textLength="129" x="243.5" y="121.1826">licenses: License[]</text><ellipse cx="234.5" cy="134.1328" fill="none" rx="3" ry="3" style="stroke:#038048;stroke-width:1.0;"/><text fill="#000000" font-family="sans-serif" font-size="14" lengthAdjust="spacing" textLength="163" x="243.5" y="137.4795">employees: Employee[]</text><ellipse cx="234.5" cy="150.4297" fill="none" rx="3" ry="3" style="stroke:#038048;stroke-width:1.0;"/><text fill="#000000" font-family="sans-serif" font-size="14" lengthAdjust="spacing" textLength="99" x="243.5" y="153.7764">tables: Table[]</text><line style="stroke:#181818;stroke-width:0.5;" x1="224.5" x2="411.5" y1="161.0781" y2="161.0781"/></g><!--MD5=[26ef8bb48695b3f7aeebf8a3bb6e7395]
class License--><g id="elem_License"><rect codeLine="11" fill="#F1F1F1" height="145.7813" id="License" rx="2.5" ry="2.5" style="stroke:#181818;stroke-width:0.5;" width="202" x="7" y="254"/><ellipse cx="77.25" cy="270" fill="#ADD1B2" rx="11" ry="11" style="stroke:#181818;stroke-width:1.0;"/><path d="M80.2188,275.6406 Q79.6406,275.9375 79,276.0781 Q78.3594,276.2344 77.6563,276.2344 Q75.1563,276.2344 73.8281,274.5938 Q72.5156,272.9375 72.5156,269.8125 Q72.5156,266.6875 73.8281,265.0313 Q75.1563,263.375 77.6563,263.375 Q78.3594,263.375 79,263.5313 Q79.6563,263.6875 80.2188,263.9844 L80.2188,266.7031 Q79.5938,266.125 79,265.8594 Q78.4063,265.5781 77.7813,265.5781 Q76.4375,265.5781 75.75,266.6563 Q75.0625,267.7188 75.0625,269.8125 Q75.0625,271.9063 75.75,272.9844 Q76.4375,274.0469 77.7813,274.0469 Q78.4063,274.0469 79,273.7813 Q79.5938,273.5 80.2188,272.9219 L80.2188,275.6406 Z " fill="#000000"/><text fill="#000000" font-family="sans-serif" font-size="14" lengthAdjust="spacing" textLength="53" x="97.75" y="274.8467">License</text><line style="stroke:#181818;stroke-width:0.5;" x1="8" x2="208" y1="286" y2="286"/><ellipse cx="18" cy="299.6484" fill="none" rx="3" ry="3" style="stroke:#038048;stroke-width:1.0;"/><text fill="#000000" font-family="sans-serif" font-size="14" lengthAdjust="spacing" textLength="61" x="27" y="302.9951">id: String</text><ellipse cx="18" cy="315.9453" fill="none" rx="3" ry="3" style="stroke:#038048;stroke-width:1.0;"/><text fill="#000000" font-family="sans-serif" font-size="14" lengthAdjust="spacing" textLength="73" x="27" y="319.292">key: String</text><ellipse cx="18" cy="332.2422" fill="none" rx="3" ry="3" style="stroke:#038048;stroke-width:1.0;"/><text fill="#000000" font-family="sans-serif" font-size="14" lengthAdjust="spacing" textLength="176" x="27" y="335.5889">expirationDate: DateTime</text><ellipse cx="18" cy="348.5391" fill="none" rx="3" ry="3" style="stroke:#038048;stroke-width:1.0;"/><text fill="#000000" font-family="sans-serif" font-size="14" lengthAdjust="spacing" textLength="143" x="27" y="351.8857">createdAt: DateTime</text><ellipse cx="18" cy="364.8359" fill="none" rx="3" ry="3" style="stroke:#038048;stroke-width:1.0;"/><text fill="#000000" font-family="sans-serif" font-size="14" lengthAdjust="spacing" textLength="148" x="27" y="368.1826">updatedAt: DateTime</text><ellipse cx="18" cy="381.1328" fill="none" rx="3" ry="3" style="stroke:#038048;stroke-width:1.0;"/><text fill="#000000" font-family="sans-serif" font-size="14" lengthAdjust="spacing" textLength="137" x="27" y="384.4795">company: Company</text><line style="stroke:#181818;stroke-width:0.5;" x1="8" x2="208" y1="391.7813" y2="391.7813"/></g><!--MD5=[6fcfcbf811b95891c0f58293ccf6e71d]
class EmployeeType--><g id="elem_EmployeeType"><rect codeLine="20" fill="#F1F1F1" height="113.1875" id="EmployeeType" rx="2.5" ry="2.5" style="stroke:#181818;stroke-width:0.5;" width="176" x="448" y="31.5"/><ellipse cx="481.9" cy="47.5" fill="#ADD1B2" rx="11" ry="11" style="stroke:#181818;stroke-width:1.0;"/><path d="M484.8688,53.1406 Q484.2906,53.4375 483.65,53.5781 Q483.0094,53.7344 482.3063,53.7344 Q479.8063,53.7344 478.4781,52.0938 Q477.1656,50.4375 477.1656,47.3125 Q477.1656,44.1875 478.4781,42.5313 Q479.8063,40.875 482.3063,40.875 Q483.0094,40.875 483.65,41.0313 Q484.3063,41.1875 484.8688,41.4844 L484.8688,44.2031 Q484.2438,43.625 483.65,43.3594 Q483.0563,43.0781 482.4313,43.0781 Q481.0875,43.0781 480.4,44.1563 Q479.7125,45.2188 479.7125,47.3125 Q479.7125,49.4063 480.4,50.4844 Q481.0875,51.5469 482.4313,51.5469 Q483.0563,51.5469 483.65,51.2813 Q484.2438,51 484.8688,50.4219 L484.8688,53.1406 Z " fill="#000000"/><text fill="#000000" font-family="sans-serif" font-size="14" lengthAdjust="spacing" textLength="102" x="500.1" y="52.3467">EmployeeType</text><line style="stroke:#181818;stroke-width:0.5;" x1="449" x2="623" y1="63.5" y2="63.5"/><text fill="#000000" font-family="sans-serif" font-size="14" lengthAdjust="spacing" textLength="87" x="454" y="80.4951">COZINHEIRO</text><text fill="#000000" font-family="sans-serif" font-size="14" lengthAdjust="spacing" textLength="59" x="454" y="96.792">GESTOR</text><text fill="#000000" font-family="sans-serif" font-size="14" lengthAdjust="spacing" textLength="164" x="454" y="113.0889">EMPREGADO_DE_MESA</text><text fill="#000000" font-family="sans-serif" font-size="14" lengthAdjust="spacing" textLength="45" x="454" y="129.3857">ADMIN</text><line style="stroke:#181818;stroke-width:0.5;" x1="449" x2="623" y1="136.6875" y2="136.6875"/></g><!--MD5=[7421f545a0d8420c5bec41e74b387d9c]
class Employee--><g id="elem_Employee"><rect codeLine="27" fill="#F1F1F1" height="162.0781" id="Employee" rx="2.5" ry="2.5" style="stroke:#181818;stroke-width:0.5;" width="167" x="257.5" y="246"/><ellipse cx="302.75" cy="262" fill="#ADD1B2" rx="11" ry="11" style="stroke:#181818;stroke-width:1.0;"/><path d="M305.7188,267.6406 Q305.1406,267.9375 304.5,268.0781 Q303.8594,268.2344 303.1563,268.2344 Q300.6563,268.2344 299.3281,266.5938 Q298.0156,264.9375 298.0156,261.8125 Q298.0156,258.6875 299.3281,257.0313 Q300.6563,255.375 303.1563,255.375 Q303.8594,255.375 304.5,255.5313 Q305.1563,255.6875 305.7188,255.9844 L305.7188,258.7031 Q305.0938,258.125 304.5,257.8594 Q303.9063,257.5781 303.2813,257.5781 Q301.9375,257.5781 301.25,258.6563 Q300.5625,259.7188 300.5625,261.8125 Q300.5625,263.9063 301.25,264.9844 Q301.9375,266.0469 303.2813,266.0469 Q303.9063,266.0469 304.5,265.7813 Q305.0938,265.5 305.7188,264.9219 L305.7188,267.6406 Z " fill="#000000"/><text fill="#000000" font-family="sans-serif" font-size="14" lengthAdjust="spacing" textLength="68" x="323.25" y="266.8467">Employee</text><line style="stroke:#181818;stroke-width:0.5;" x1="258.5" x2="423.5" y1="278" y2="278"/><ellipse cx="268.5" cy="291.6484" fill="none" rx="3" ry="3" style="stroke:#038048;stroke-width:1.0;"/><text fill="#000000" font-family="sans-serif" font-size="14" lengthAdjust="spacing" textLength="61" x="277.5" y="294.9951">id: String</text><ellipse cx="268.5" cy="307.9453" fill="none" rx="3" ry="3" style="stroke:#038048;stroke-width:1.0;"/><text fill="#000000" font-family="sans-serif" font-size="14" lengthAdjust="spacing" textLength="88" x="277.5" y="311.292">name: String</text><ellipse cx="268.5" cy="324.2422" fill="none" rx="3" ry="3" style="stroke:#038048;stroke-width:1.0;"/><text fill="#000000" font-family="sans-serif" font-size="14" lengthAdjust="spacing" textLength="85" x="277.5" y="327.5889">email: String</text><ellipse cx="268.5" cy="340.5391" fill="none" rx="3" ry="3" style="stroke:#038048;stroke-width:1.0;"/><text fill="#000000" font-family="sans-serif" font-size="14" lengthAdjust="spacing" textLength="95" x="277.5" y="343.8857">mobile: String</text><ellipse cx="268.5" cy="356.8359" fill="none" rx="3" ry="3" style="stroke:#038048;stroke-width:1.0;"/><text fill="#000000" font-family="sans-serif" font-size="14" lengthAdjust="spacing" textLength="70" x="277.5" y="360.1826">pin: String</text><ellipse cx="268.5" cy="373.1328" fill="none" rx="3" ry="3" style="stroke:#038048;stroke-width:1.0;"/><text fill="#000000" font-family="sans-serif" font-size="14" lengthAdjust="spacing" textLength="141" x="277.5" y="376.4795">type: EmployeeType</text><ellipse cx="268.5" cy="389.4297" fill="none" rx="3" ry="3" style="stroke:#038048;stroke-width:1.0;"/><text fill="#000000" font-family="sans-serif" font-size="14" lengthAdjust="spacing" textLength="137" x="277.5" y="392.7764">company: Company</text><line style="stroke:#181818;stroke-width:0.5;" x1="258.5" x2="423.5" y1="400.0781" y2="400.0781"/></g><!--MD5=[c0b936abb008b3271898d4186b5531e4]
class Table--><g id="elem_Table"><rect codeLine="37" fill="#F1F1F1" height="96.8906" id="Table" rx="2.5" ry="2.5" style="stroke:#181818;stroke-width:0.5;" width="163" x="465.5" y="278.5"/><ellipse cx="523.75" cy="294.5" fill="#ADD1B2" rx="11" ry="11" style="stroke:#181818;stroke-width:1.0;"/><path d="M526.7188,300.1406 Q526.1406,300.4375 525.5,300.5781 Q524.8594,300.7344 524.1563,300.7344 Q521.6563,300.7344 520.3281,299.0938 Q519.0156,297.4375 519.0156,294.3125 Q519.0156,291.1875 520.3281,289.5313 Q521.6563,287.875 524.1563,287.875 Q524.8594,287.875 525.5,288.0313 Q526.1563,288.1875 526.7188,288.4844 L526.7188,291.2031 Q526.0938,290.625 525.5,290.3594 Q524.9063,290.0781 524.2813,290.0781 Q522.9375,290.0781 522.25,291.1563 Q521.5625,292.2188 521.5625,294.3125 Q521.5625,296.4063 522.25,297.4844 Q522.9375,298.5469 524.2813,298.5469 Q524.9063,298.5469 525.5,298.2813 Q526.0938,298 526.7188,297.4219 L526.7188,300.1406 Z " fill="#000000"/><text fill="#000000" font-family="sans-serif" font-size="14" lengthAdjust="spacing" textLength="38" x="544.25" y="299.3467">Table</text><line style="stroke:#181818;stroke-width:0.5;" x1="466.5" x2="627.5" y1="310.5" y2="310.5"/><ellipse cx="476.5" cy="324.1484" fill="none" rx="3" ry="3" style="stroke:#038048;stroke-width:1.0;"/><text fill="#000000" font-family="sans-serif" font-size="14" lengthAdjust="spacing" textLength="61" x="485.5" y="327.4951">id: String</text><ellipse cx="476.5" cy="340.4453" fill="none" rx="3" ry="3" style="stroke:#038048;stroke-width:1.0;"/><text fill="#000000" font-family="sans-serif" font-size="14" lengthAdjust="spacing" textLength="80" x="485.5" y="343.792">number: Int</text><ellipse cx="476.5" cy="356.7422" fill="none" rx="3" ry="3" style="stroke:#038048;stroke-width:1.0;"/><text fill="#000000" font-family="sans-serif" font-size="14" lengthAdjust="spacing" textLength="137" x="485.5" y="360.0889">company: Company</text><line style="stroke:#181818;stroke-width:0.5;" x1="466.5" x2="627.5" y1="367.3906" y2="367.3906"/></g><!--MD5=[144e15edbe66003b8b4deef1e5c87357]
link Company to License--><g id="link_Company_License"><path codeLine="44" d="M223.45,106.92 C171.59,122.09 111.57,149.63 80,199 C70.58,213.74 69.42,231.19 72.39,248.36 " fill="none" id="Company-to-License" style="stroke:#181818;stroke-width:1.0;"/><polygon fill="#181818" points="73.44,253.68,75.6134,244.074,72.4677,248.7755,67.7662,245.6297,73.44,253.68" style="stroke:#181818;stroke-width:1.0;"/><text fill="#000000" font-family="sans-serif" font-size="13" lengthAdjust="spacing" textLength="41" x="81" y="212.0669">possui</text><text fill="#000000" font-family="sans-serif" font-size="13" lengthAdjust="spacing" textLength="8" x="207.5968" y="104.8991">1</text><text fill="#000000" font-family="sans-serif" font-size="13" lengthAdjust="spacing" textLength="8" x="61.6443" y="242.8085">n</text></g><!--MD5=[6e69a631636b0610f3906d82dd437e5e]
link License to Company--><g id="link_License_Company"><path codeLine="47" d="M151.66,253.75 C164.11,235.2 178.31,215.76 193,199 C201.17,189.68 210.11,180.39 219.33,171.39 " fill="none" id="License-to-Company" style="stroke:#181818;stroke-width:1.0;"/><polygon fill="#181818" points="223.29,167.56,214.0418,170.9468,219.6979,171.0381,219.6067,176.6942,223.29,167.56" style="stroke:#181818;stroke-width:1.0;"/><text fill="#000000" font-family="sans-serif" font-size="13" lengthAdjust="spacing" textLength="69" x="194" y="212.0669">pertence a</text><text fill="#000000" font-family="sans-serif" font-size="13" lengthAdjust="spacing" textLength="8" x="147.564" y="242.8854">1</text><text fill="#000000" font-family="sans-serif" font-size="13" lengthAdjust="spacing" textLength="8" x="207.424" y="170.3714">1</text></g><!--MD5=[09366576ee87d48d594df10cacc83f45]
link Company to Employee--><g id="link_Company_Employee"><path codeLine="45" d="M274.73,169.16 C270.81,184.6 269.71,200.72 274,216 C276.4,224.54 279.66,233.07 283.46,241.39 " fill="none" id="Company-to-Employee" style="stroke:#181818;stroke-width:1.0;"/><polygon fill="#181818" points="285.62,245.99,285.4116,236.1433,283.4931,241.4649,278.1715,239.5464,285.62,245.99" style="stroke:#181818;stroke-width:1.0;"/><text fill="#000000" font-family="sans-serif" font-size="13" lengthAdjust="spacing" textLength="41" x="275" y="212.0669">possui</text><text fill="#000000" font-family="sans-serif" font-size="13" lengthAdjust="spacing" textLength="8" x="262.52" y="189.1256">1</text><text fill="#000000" font-family="sans-serif" font-size="13" lengthAdjust="spacing" textLength="8" x="272.1459" y="234.8999">n</text></g><!--MD5=[d7ace9ce94145b54e26b24a174e1b7b9]
link Employee to Company--><g id="link_Employee_Company"><path codeLine="48" d="M333.22,245.85 C330.99,222.88 328.55,197.76 326.3,174.48 " fill="none" id="Employee-to-Company" style="stroke:#181818;stroke-width:1.0;"/><polygon fill="#181818" points="325.79,169.24,322.6841,178.5863,326.2762,174.2163,330.6462,177.8084,325.79,169.24" style="stroke:#181818;stroke-width:1.0;"/><text fill="#000000" font-family="sans-serif" font-size="13" lengthAdjust="spacing" textLength="69" x="332" y="212.0669">pertence a</text><text fill="#000000" font-family="sans-serif" font-size="13" lengthAdjust="spacing" textLength="8" x="324.1708" y="235.0239">1</text><text fill="#000000" font-family="sans-serif" font-size="13" lengthAdjust="spacing" textLength="8" x="318.1275" y="189.2127">1</text></g><!--MD5=[bffee88944413d161ff4d092ab86f1a4]
link Company to Table--><g id="link_Company_Table"><path codeLine="46" d="M395.53,169.24 C429.19,204.08 467.64,243.86 497.37,274.64 " fill="none" id="Company-to-Table" style="stroke:#181818;stroke-width:1.0;"/><polygon fill="#181818" points="500.95,278.34,497.5822,269.0849,497.4793,274.7408,491.8234,274.6379,500.95,278.34" style="stroke:#181818;stroke-width:1.0;"/><text fill="#000000" font-family="sans-serif" font-size="13" lengthAdjust="spacing" textLength="41" x="441" y="212.0669">possui</text><text fill="#000000" font-family="sans-serif" font-size="13" lengthAdjust="spacing" textLength="8" x="394.0788" y="189.2127">1</text><text fill="#000000" font-family="sans-serif" font-size="13" lengthAdjust="spacing" textLength="8" x="485.9117" y="267.5264">n</text></g><!--MD5=[a7dedb47caf5ffcce284ef331e308edf]
link Table to Company--><g id="link_Table_Company"><path codeLine="49" d="M534.65,278.33 C525.95,252.34 512.03,221.07 491,199 C470.43,177.41 456.57,184.32 431,169 C426.34,166.21 421.63,163.29 416.9,160.28 " fill="none" id="Table-to-Company" style="stroke:#181818;stroke-width:1.0;"/><polygon fill="#181818" points="412.56,157.5,417.9803,165.7232,416.7701,160.1973,422.2959,158.9871,412.56,157.5" style="stroke:#181818;stroke-width:1.0;"/><text fill="#000000" font-family="sans-serif" font-size="13" lengthAdjust="spacing" textLength="69" x="504" y="212.0669">pertence a</text><text fill="#000000" font-family="sans-serif" font-size="13" lengthAdjust="spacing" textLength="8" x="524.3508" y="267.515">1</text><text fill="#000000" font-family="sans-serif" font-size="13" lengthAdjust="spacing" textLength="8" x="420.414" y="159.5097">1</text></g><!--MD5=[fa0e934f9c7e99ac5efd48181634a4bf]
@startuml
class Company {
  + id: String
  + name: String
  + email: String
  + password: String
  + licenses: License[]
  + employees: Employee[]
  + tables: Table[]
}

class License {
  + id: String
  + key: String
  + expirationDate: DateTime
  + createdAt: DateTime
  + updatedAt: DateTime
  + company: Company
}

class EmployeeType {
  COZINHEIRO
  GESTOR
  EMPREGADO_DE_MESA
  ADMIN
}

class Employee {
  + id: String
  + name: String
  + email: String
  + mobile: String
  + pin: String
  + type: EmployeeType
  + company: Company
}

class Table {
  + id: String
  + number: Int
  + company: Company
}


Company "1" - -> "n" License : possui
Company "1" - -> "n" Employee : possui
Company "1" - -> "n" Table : possui
License "1" - -> "1" Company : pertence a
Employee "1" - -> "1" Company : pertence a
Table "1" - -> "1" Company : pertence a
@enduml

PlantUML version 1.2022.7(Mon Aug 22 17:01:30 UTC 2022)
(GPL source distribution)
Java Runtime: OpenJDK Runtime Environment
JVM: OpenJDK 64-Bit Server VM
Default Encoding: UTF-8
Language: en
Country: null
--></g></svg>